<svg xmlns="http://www.w3.org/2000/svg" data-name="Layer 1" viewBox="0 0 32 32" id="electricity"><path d="M20.153,12.631v5.61l2.717,2.811h3.313L28.9,18.241v-5.61Zm6.746,4.8-1.564,1.619H23.718l-1.565-1.619v-2.8H26.9Z"></path><rect width="2" height="2.622" x="21.84" y="8.988"></rect><rect width="2" height="2.622" x="25.213" y="8.988"></rect><polygon points="23.522 26.969 16.014 26.969 8.505 26.969 8.505 16.394 6.505 16.394 6.505 28.969 16.014 28.969 25.522 28.969 25.522 23.052 23.522 23.052 23.522 26.969"></polygon><polygon points="19.591 9.042 20.944 7.57 16.014 3.031 8.505 9.943 8.505 7.145 6.505 7.145 6.505 11.783 3.101 14.917 4.454 16.388 16.014 5.749 19.591 9.042"></polygon></svg>